<?xml version="1.0"?><svg fill="#000000" xmlns="http://www.w3.org/2000/svg" viewBox="0 0 128 128" width="64px" height="64px">    <path d="M 54 11.414062 C 51.20625 11.45625 48.525781 12.75 46.800781 15 L 42.800781 20.199219 C 42.400781 20.699219 41.900781 21.100781 41.300781 21.300781 L 35.199219 23.5 C 31.599219 24.8 29.1 28.2 29 32 L 28.800781 38.5 C 28.800781 39.1 28.599219 39.700781 28.199219 40.300781 L 24.5 45.699219 C 22.5 48.899219 22.499609 53.100781 24.599609 56.300781 L 28.300781 61.699219 C 28.700781 62.199219 28.900391 62.8 28.900391 63.5 L 29.099609 70 C 29.199609 73.8 31.700781 77.2 35.300781 78.5 L 38.5 79.599609 L 27 111 C 26.6 112.1 26.900781 113.39922 27.800781 114.19922 C 28.700781 114.99922 29.999609 115.19922 31.099609 114.69922 C 36.699609 112.09922 43.300391 114.49961 45.900391 120.09961 C 46.400391 121.19961 47.499609 121.80078 48.599609 121.80078 L 48.699219 121.80078 C 49.899219 121.70078 51.000391 121.00078 51.400391 119.80078 L 62.900391 88.199219 L 63.099609 88.099609 C 63.699609 87.899609 64.4 87.899609 65 88.099609 L 71.199219 89.900391 C 74.899219 91.000391 78.899219 89.699219 81.199219 86.699219 L 84.800781 82 L 94 107.30078 C 89.1 107.00078 84.300781 108.69961 80.800781 112.09961 L 75.599609 98 C 74.999609 96.4 73.300781 95.599219 71.800781 96.199219 C 70.300781 96.799219 69.4 98.5 70 100 L 77.099609 119.59961 C 77.499609 120.69961 78.600781 121.49961 79.800781 121.59961 L 79.900391 121.59961 C 81.100391 121.59961 82.099609 120.90039 82.599609 119.90039 C 85.199609 114.30039 91.800391 111.9 97.400391 114.5 C 98.500391 115 99.799219 114.8 100.69922 114 C 101.59922 113.2 101.9 111.90078 101.5 110.80078 L 90.099609 79.300781 L 92.699219 78.400391 C 96.299219 77.100391 98.800391 73.700391 98.900391 69.900391 L 99.099609 63.400391 C 99.099609 62.800391 99.299219 62.199609 99.699219 61.599609 L 103.40039 56.199219 C 105.60039 53.099219 105.60039 48.799219 103.40039 45.699219 L 99.699219 40.300781 C 99.299219 39.800781 99.099609 39.2 99.099609 38.5 L 98.900391 32 C 98.800391 28.2 96.299219 24.8 92.699219 23.5 L 86.599609 21.300781 C 85.999609 21.100781 85.499609 20.699219 85.099609 20.199219 L 81.099609 15 C 78.799609 12 74.799609 10.700781 71.099609 11.800781 L 64.900391 13.599609 C 64.300391 13.799609 63.6 13.799609 63 13.599609 L 56.800781 11.800781 C 55.875781 11.525781 54.93125 11.4 54 11.414062 z M 64 33 C 73.9 33 82 41.1 82 51 C 82 60.9 73.9 69 64 69 C 54.1 69 46 60.9 46 51 C 46 41.1 54.1 33 64 33 z M 64 43 C 62.3 43 61 44.3 61 46 L 61 56 C 61 57.7 62.3 59 64 59 C 65.7 59 67 57.7 67 56 L 67 46 C 67 44.3 65.7 43 64 43 z M 43.699219 82.699219 L 46.900391 86.800781 C 48.700391 89.100781 51.500781 90.400391 54.300781 90.400391 C 54.800781 90.400391 55.300781 90.300781 55.800781 90.300781 L 47.699219 112.5 C 45.999219 110.8 43.899609 109.59922 41.599609 108.69922 C 39.699609 107.99922 37.699219 107.69922 35.699219 107.69922 L 34.5 107.69922 L 43.699219 82.699219 z"/></svg>