<?xml version="1.0" encoding="UTF-8"?>
<svg xmlns="http://www.w3.org/2000/svg" xmlns:xlink="http://www.w3.org/1999/xlink" width="240pt" height="240pt" viewBox="0 0 240 240" version="1.1">
<g id="surface5226408">
<path style=" stroke:none;fill-rule:nonzero;fill:rgb(56.470588%,79.215686%,97.647059%);fill-opacity:0.5;" d="M 175 220 C 140 220 60 220 60 220 L 60 20 L 210 20 L 210 185 C 210 185 210 220 175 220 Z M 175 220 "/>
<path style=" stroke:none;fill-rule:nonzero;fill:rgb(56.470588%,79.215686%,97.647059%);fill-opacity:0.5;" d="M 175 220 C 140 220 60 220 60 220 L 60 20 L 210 20 L 210 185 C 210 185 210 220 175 220 Z M 175 220 "/>
<path style=" stroke:none;fill-rule:nonzero;fill:rgb(25.882353%,64.705882%,96.078431%);fill-opacity:0.5;" d="M 175 195 L 175 165 L 60 165 L 60 220 C 60 220 140 220 175 220 C 182.488281 220 188.300781 218.339844 192.929688 215.820312 C 175.074219 210.789062 175 195 175 195 Z M 175 195 "/>
<path style=" stroke:none;fill-rule:nonzero;fill:rgb(73.333333%,87.058824%,98.431373%);fill-opacity:0.5;" d="M 140 185 L 140 175 L 30 175 L 30 185 C 30 185 30 220 65 220 C 96.515625 220 139.851562 220 175 220 C 140 220 140 185 140 185 Z M 140 185 "/>
</g>
</svg>
